# xmcd
#
# Track frame offsets: 
#        150
#        23553
#        61911
#        90782
#        115254
#        123753
#        147941
#        169810
#        196897
#        213163
#        232212
#
# Disc length: 3378 seconds
#
# Revision: 2
# Processed by: cddbd v1.5.2PL0 Copyright (c) Steve Scherf et al.
# Submitted via: ExactAudioCopy v1.3
#
DISCID=8a0d300b
DTITLE=Wesseltoft Bugge - Everybody Loves Angels
DYEAR=2017
DGENRE=Jazz
TTITLE0=Es sungen drei Engel
TTITLE1=Bridge Over Troubled Water
TTITLE2=Koral
TTITLE3=Angel
TTITLE4=Reflecting
TTITLE5=Morning Has Broken
TTITLE6=Salme
TTITLE7=Blowing In The Wind
TTITLE8=Angie
TTITLE9=Locked Out Of Heaven
TTITLE10=Let It Be
EXTD=YEAR: 2017
EXTT0=
EXTT1=
EXTT2=
EXTT3=
EXTT4=
EXTT5=
EXTT6=
EXTT7=
EXTT8=
EXTT9=
EXTT10=
PLAYORDER=
